{"title":"The.Wanderers.1979.DVDRip.x264.Iou1","uid":8677246,"size":1471473575,"categoryP":"video","categoryS":"movies","magnet":"?xt=urn:btih:7f46bdc29244e7f7e0f5969d630ec18b691b39a6&amp;dn=The.Wanderers.1979.DVDRip.x264.Iou1&amp;tr=udp%3A%2F%2Ftracker.openbittorrent.com%3A80&amp;tr=udp%3A%2F%2Fopen.demonii.com%3A1337&amp;tr=udp%3A%2F%2Ftracker.coppersurfer.tk%3A6969&amp;tr=udp%3A%2F%2Fexodus.desync.com%3A6969","seeders":1,"leechers":0,"uploader":"jaybee211","files":-1,"time":1373626690,"description":"Note. DVD was very grainy, !080p It's not, But better than what's available\n      Used De-Blocking settings 0-0, No noise reduction\n      Until a remastered version or Blu-ray is available will have to do\n      I wll upload the DVD5 4Gig in Vob or MKV if anyone wants it, Cheers.\n\nFormat                                   : MPEG-4\nFormat profile                           : Base Media / Version 2\nCodec ID                                 : mp42\nFile size                                : 1.37 GiB\nDuration                                 : 1h 52mn\nOverall bit rate mode                    : Variable\nOverall bit rate                         : 1 750 Kbps\n\nVideo\nID                                       : 1\nFormat                                   : AVC\nFormat/Info                              : Advanced Video Codec\nFormat profile                           : &lt;a class=&quot;__cf_email__&quot; href=&quot;/cdn-cgi/l/email-protection&quot; data-cfemail=&quot;e3ab8a848ba3afd0cdd3&quot;&gt;[email&amp;#160;protected]&lt;/a&gt;&lt;script cf-hash='f9e31' type=&quot;text/javascript&quot;&gt;\n/* &lt;![CDATA[ */!function(){try{var t=&quot;currentScript&quot;in document?document.currentScript:function(){for(var t=document.getElementsByTagName(&quot;script&quot;),e=t.length;e--;)if(t[e].getAttribute(&quot;cf-hash&quot;))return t[e]}();if(t&amp;&amp;t.previousSibling){var e,r,n,i,c=t.previousSibling,a=c.getAttribute(&quot;data-cfemail&quot;);if(a){for(e=&quot;&quot;,r=parseInt(a.substr(0,2),16),n=2;a.length-n;n+=2)i=parseInt(a.substr(n,2),16)^r,e+=String.fromCharCode(i);e=document.createTextNode(e),c.parentNode.replaceChild(e,c)}}}catch(u){}}();/* ]]&gt; */&lt;/script&gt;\nFormat settings, CABAC                   : Yes\nFormat settings, ReFrames                : 5 frames\nCodec ID                                 : avc1\nCodec ID/Info                            : Advanced Video Coding\nDuration                                 : 1h 52mn\nBit rate mode                            : Variable\nBit rate                                 : 1 554 Kbps\nWidth                                    : 720 pixels\nHeight                                   : 384 pixels\nDisplay aspect ratio                     : 1.85:1\nFrame rate mode                          : Constant\nFrame rate                               : 25.000 fps\nColor space                              : YUV\nChroma subsampling                       : 4:2:0\nBit depth                                : 8 bits\nScan type                                : Progressive\nBits/(Pixel*Frame)                       : 0.225\nStream size                              : 1.22 GiB (89%)\nWriting library                          : x264 core 130 r2273 b3065e6\n\nAudio\nID                                       : 2\nFormat                                   : AAC\nFormat/Info                              : Advanced Audio Codec\nFormat profile                           : LC\nCodec ID                                 : 40\nDuration                                 : 1h 52mn\nBit rate mode                            : Variable\nBit rate                                 : 192 Kbps\nMaximum bit rate                         : 271 Kbps\nChannel(s)                               : 2 channels\nChannel positions                        : Front: L R\nSampling rate                            : 48.0 KHz\nCompression mode                         : Lossy\nDelay relative to video                  : 80ms\nStream size                              : 154 MiB (11%)\nLanguage                                 : English\n\nIMDB. &lt;a href=&quot; http://www.imdb.com/title/tt0080117/&quot; rel=&quot;nofollow&quot; target=&quot;_NEW&quot;&gt; http://www.imdb.com/title/tt0080117/&lt;/a&gt;\n\nStoryline.\nSet against the urban jungle of 1963 New York's gangland subculture, this coming of age teenage movie is set around the Italian gang the Wanderers. Slight comedy, slight High School angst and every bit entertaining with its classic 1950's Rock n' Roll soundtrack such as &quot;Walk Like a Man&quot;, &quot;Big Girls Don't Cry&quot; by The Four Seasons and &quot;My Boyfriend's Back&quot; by The Angels. Focusing around a football game where the different gangs play with and against each other, then at its grand finale, come together in a mass of union to defend their honour and their turf. Nostalgic stuff and above all a Rock n' Roll retrospective on a grand musical era. Timeless.\n\nCovers. &lt;a href=&quot; http://bayimg.com/lANGBaAel&quot; rel=&quot;nofollow&quot; target=&quot;_NEW&quot;&gt; http://bayimg.com/lANGBaAel&lt;/a&gt;\n\nScreens. &lt;a href=&quot; http://bayimg.com/lANGcAAeL&quot; rel=&quot;nofollow&quot; target=&quot;_NEW&quot;&gt; http://bayimg.com/lANGcAAeL&lt;/a&gt;\n\n         &lt;a href=&quot; http://bayimg.com/LAnGDaaEl&quot; rel=&quot;nofollow&quot; target=&quot;_NEW&quot;&gt; http://bayimg.com/LAnGDaaEl&lt;/a&gt;\n\n         &lt;a href=&quot; http://bayimg.com/lanGEAAel&quot; rel=&quot;nofollow&quot; target=&quot;_NEW&quot;&gt; http://bayimg.com/lanGEAAel&lt;/a&gt;\n\n         &lt;a href=&quot; http://bayimg.com/LAnGFaAEl&quot; rel=&quot;nofollow&quot; target=&quot;_NEW&quot;&gt; http://bayimg.com/LAnGFaAEl&lt;/a&gt;\n\n         &lt;a href=&quot; http://bayimg.com/lanGGAaEl&quot; rel=&quot;nofollow&quot; target=&quot;_NEW&quot;&gt; http://bayimg.com/lanGGAaEl&lt;/a&gt;\n\n         &lt;a href=&quot; http://bayimg.com/lAngiaAel&quot; rel=&quot;nofollow&quot; target=&quot;_NEW&quot;&gt; http://bayimg.com/lAngiaAel&lt;/a&gt;\n\nEnjoy.","torrent":{"xt":"urn:btih:7f46bdc29244e7f7e0f5969d630ec18b691b39a6","amp;dn":"The.Wanderers.1979.DVDRip.x264.Iou1","amp;tr":["udp%3A%2F%2Ftracker.openbittorrent.com%3A80","udp%3A%2F%2Fopen.demonii.com%3A1337","udp%3A%2F%2Ftracker.coppersurfer.tk%3A6969","udp%3A%2F%2Fexodus.desync.com%3A6969"],"infoHash":"7f46bdc29244e7f7e0f5969d630ec18b691b39a6","infoHashBuffer":{"type":"Buffer","data":[127,70,189,194,146,68,231,247,224,245,150,157,99,14,193,139,105,27,57,166]},"announce":[],"urlList":[]}}